<?xml version="1.0" encoding="UTF-8"?>
<svg id="Ebene_1" data-name="Ebene 1" xmlns="http://www.w3.org/2000/svg" viewBox="0 0 512 512">
  <defs>
    <style>
      .cls-1 {
        fill: #c8c8ff;
      }

      .cls-2 {
        fill: blue;
      }

      .cls-3 {
        fill: #fff;
      }

      .cls-4 {
        fill: #0000a4;
      }
    </style>
  </defs>
  <path class="cls-2" d="M498.33,256c0,165.17-77.17,242.33-242.33,242.33S13.67,421.17,13.67,256,90.83,13.67,256,13.67s242.33,77.17,242.33,242.33Z"/>
  <path class="cls-1" d="M260.46,46.1c90.06-8.16,172.11,28.15,196.89,120.6,5.84,21.93,7.99,44.52,7.21,67.07,0,.05,0,.1,0,.15-.03,1.65-2.46,1.76-2.66.11-.61-5.14-1.29-10.28-2.14-15.35-6.3-40.96-20.03-82.38-48.9-112.91-38.76-41.68-95.72-54.53-150.4-59.68h0Z"/>
  <path class="cls-3" d="M188.07,144.08l185.2,104.09c5.99,3.37,5.99,11.99,0,15.36l-185.2,104.09c-5.87,3.3-13.12-.94-13.12-7.68v-208.19c0-6.73,7.25-10.98,13.12-7.68Z"/>
  <path class="cls-4" d="M244.83,467.77c-90.06,8.16-172.11-28.15-196.89-120.6-5.84-21.93-7.99-44.52-7.21-67.07,0-.05,0-.1,0-.15.03-1.65,2.46-1.76,2.66-.11.61,5.14,1.29,10.28,2.14,15.35,6.3,40.96,20.03,82.38,48.9,112.91,38.76,41.68,95.72,54.53,150.4,59.68h0Z"/>
</svg>